<mxfile host="app.diagrams.net" modified="2023-12-12T09:34:15.649Z" agent="Mozilla/5.0 (X11; Linux x86_64; rv:102.0) Gecko/20100101 Firefox/102.0" etag="sSQ2LdQoDRyGRuGqJEui" version="22.1.7" type="device">
  <diagram id="prtHgNgQTEPvFCAcTncT" name="Page-1">
    <mxGraphModel dx="1311" dy="658" grid="1" gridSize="10" guides="1" tooltips="1" connect="1" arrows="1" fold="1" page="1" pageScale="1" pageWidth="827" pageHeight="1169" math="0" shadow="0">
      <root>
        <mxCell id="0" />
        <mxCell id="1" parent="0" />
        <mxCell id="ljBDnQ2L84ngYzarCwvp-2" value="&lt;b&gt;&lt;font style=&quot;font-size: 30px;&quot;&gt;dc&lt;/font&gt;&lt;/b&gt;" style="whiteSpace=wrap;html=1;aspect=fixed;perimeterSpacing=0;rounded=1;fillColor=#dae8fc;strokeColor=#6c8ebf;" parent="1" vertex="1">
          <mxGeometry x="360" y="40" width="60" height="60" as="geometry" />
        </mxCell>
        <mxCell id="ljBDnQ2L84ngYzarCwvp-3" value="dc=capsule,dc=iut" style="text;html=1;strokeColor=none;fillColor=none;align=center;verticalAlign=middle;whiteSpace=wrap;rounded=0;" parent="1" vertex="1">
          <mxGeometry x="315" y="100" width="150" height="30" as="geometry" />
        </mxCell>
        <mxCell id="ljBDnQ2L84ngYzarCwvp-8" value="&lt;font style=&quot;font-size: 10px;&quot;&gt;ou=groupes&lt;/font&gt;" style="text;html=1;strokeColor=none;fillColor=none;align=center;verticalAlign=middle;whiteSpace=wrap;rounded=0;" parent="1" vertex="1">
          <mxGeometry x="491" y="209.5" width="150" height="30" as="geometry" />
        </mxCell>
        <mxCell id="ljBDnQ2L84ngYzarCwvp-17" value="&lt;font style=&quot;font-size: 8px;&quot;&gt;cn=admin&lt;/font&gt;" style="text;html=1;strokeColor=none;fillColor=none;align=center;verticalAlign=middle;whiteSpace=wrap;rounded=0;" parent="1" vertex="1">
          <mxGeometry x="416" y="310" width="150" height="30" as="geometry" />
        </mxCell>
        <mxCell id="ljBDnQ2L84ngYzarCwvp-18" value="&lt;font style=&quot;font-size: 8px;&quot;&gt;cn=info&lt;/font&gt;" style="text;html=1;strokeColor=none;fillColor=none;align=center;verticalAlign=middle;whiteSpace=wrap;rounded=0;" parent="1" vertex="1">
          <mxGeometry x="491" y="309" width="150" height="30" as="geometry" />
        </mxCell>
        <mxCell id="ljBDnQ2L84ngYzarCwvp-19" value="&lt;font style=&quot;font-size: 8px;&quot;&gt;cn=prod&lt;/font&gt;" style="text;html=1;strokeColor=none;fillColor=none;align=center;verticalAlign=middle;whiteSpace=wrap;rounded=0;" parent="1" vertex="1">
          <mxGeometry x="565" y="310" width="150" height="30" as="geometry" />
        </mxCell>
        <mxCell id="ljBDnQ2L84ngYzarCwvp-20" value="&lt;font size=&quot;1&quot;&gt;&lt;b style=&quot;font-size: 20px;&quot;&gt;ou&lt;/b&gt;&lt;/font&gt;" style="whiteSpace=wrap;html=1;aspect=fixed;perimeterSpacing=0;rounded=1;fillColor=#e1d5e7;strokeColor=#9673a6;" parent="1" vertex="1">
          <mxGeometry x="546.25" y="170" width="39.5" height="39.5" as="geometry" />
        </mxCell>
        <mxCell id="ljBDnQ2L84ngYzarCwvp-30" value="&lt;font size=&quot;1&quot;&gt;&lt;b style=&quot;font-size: 20px;&quot;&gt;ou&lt;/b&gt;&lt;/font&gt;" style="whiteSpace=wrap;html=1;aspect=fixed;perimeterSpacing=0;rounded=1;fillColor=#e1d5e7;strokeColor=#9673a6;" parent="1" vertex="1">
          <mxGeometry x="194.5" y="170" width="39.5" height="39.5" as="geometry" />
        </mxCell>
        <mxCell id="ljBDnQ2L84ngYzarCwvp-38" value="&lt;font style=&quot;font-size: 10px;&quot;&gt;ou=utilisateurs&lt;/font&gt;" style="text;html=1;strokeColor=none;fillColor=none;align=center;verticalAlign=middle;whiteSpace=wrap;rounded=0;" parent="1" vertex="1">
          <mxGeometry x="139.25" y="209.5" width="150" height="30" as="geometry" />
        </mxCell>
        <mxCell id="ljBDnQ2L84ngYzarCwvp-44" value="&lt;font size=&quot;1&quot;&gt;&lt;b&gt;uid&lt;/b&gt;&lt;/font&gt;" style="whiteSpace=wrap;html=1;aspect=fixed;perimeterSpacing=0;rounded=1;fillColor=#f8cecc;strokeColor=#b85450;" parent="1" vertex="1">
          <mxGeometry x="60.25" y="280" width="29.5" height="29.5" as="geometry" />
        </mxCell>
        <mxCell id="ljBDnQ2L84ngYzarCwvp-45" value="&lt;b&gt;&lt;font size=&quot;1&quot;&gt;uid&lt;/font&gt;&lt;/b&gt;" style="whiteSpace=wrap;html=1;aspect=fixed;perimeterSpacing=0;rounded=1;fillColor=#f8cecc;strokeColor=#b85450;" parent="1" vertex="1">
          <mxGeometry x="150" y="279.5" width="30" height="30" as="geometry" />
        </mxCell>
        <mxCell id="ljBDnQ2L84ngYzarCwvp-51" value="&lt;font size=&quot;1&quot;&gt;&lt;b&gt;uid&lt;/b&gt;&lt;/font&gt;" style="whiteSpace=wrap;html=1;aspect=fixed;perimeterSpacing=0;rounded=1;fillColor=#f8cecc;strokeColor=#b85450;" parent="1" vertex="1">
          <mxGeometry x="234" y="279.5" width="29.5" height="29.5" as="geometry" />
        </mxCell>
        <mxCell id="ljBDnQ2L84ngYzarCwvp-52" value="&lt;b&gt;&lt;font size=&quot;1&quot;&gt;uid&lt;/font&gt;&lt;/b&gt;" style="whiteSpace=wrap;html=1;aspect=fixed;perimeterSpacing=0;rounded=1;fillColor=#f8cecc;strokeColor=#b85450;" parent="1" vertex="1">
          <mxGeometry x="320.25" y="280" width="30" height="30" as="geometry" />
        </mxCell>
        <mxCell id="ljBDnQ2L84ngYzarCwvp-55" value="&lt;font style=&quot;font-size: 8px;&quot;&gt;uid=younes.bendhiab&lt;/font&gt;" style="text;html=1;strokeColor=none;fillColor=none;align=center;verticalAlign=middle;whiteSpace=wrap;rounded=0;" parent="1" vertex="1">
          <mxGeometry y="309.5" width="150" height="30" as="geometry" />
        </mxCell>
        <mxCell id="ljBDnQ2L84ngYzarCwvp-56" value="&lt;font style=&quot;font-size: 8px;&quot;&gt;uid=benoit.dessaint&lt;/font&gt;" style="text;html=1;strokeColor=none;fillColor=none;align=center;verticalAlign=middle;whiteSpace=wrap;rounded=0;" parent="1" vertex="1">
          <mxGeometry x="89.75" y="309.5" width="150" height="30" as="geometry" />
        </mxCell>
        <mxCell id="ljBDnQ2L84ngYzarCwvp-59" value="&lt;font style=&quot;font-size: 8px;&quot;&gt;uid=jugurtha.saada&lt;/font&gt;" style="text;html=1;strokeColor=none;fillColor=none;align=center;verticalAlign=middle;whiteSpace=wrap;rounded=0;" parent="1" vertex="1">
          <mxGeometry x="173.75" y="309" width="150" height="30" as="geometry" />
        </mxCell>
        <mxCell id="ljBDnQ2L84ngYzarCwvp-61" value="&lt;font style=&quot;font-size: 8px;&quot;&gt;uid=cedric.larssonier&lt;/font&gt;" style="text;html=1;strokeColor=none;fillColor=none;align=center;verticalAlign=middle;whiteSpace=wrap;rounded=0;" parent="1" vertex="1">
          <mxGeometry x="260.25" y="309" width="150" height="30" as="geometry" />
        </mxCell>
        <mxCell id="ljBDnQ2L84ngYzarCwvp-63" value="" style="endArrow=classic;html=1;rounded=0;entryX=0.5;entryY=0;entryDx=0;entryDy=0;" parent="1" edge="1" target="ljBDnQ2L84ngYzarCwvp-44">
          <mxGeometry width="50" height="50" relative="1" as="geometry">
            <mxPoint x="210.25" y="240" as="sourcePoint" />
            <mxPoint x="180" y="260" as="targetPoint" />
          </mxGeometry>
        </mxCell>
        <mxCell id="ljBDnQ2L84ngYzarCwvp-64" value="" style="endArrow=classic;html=1;rounded=0;entryX=0.5;entryY=0;entryDx=0;entryDy=0;" parent="1" edge="1" target="ljBDnQ2L84ngYzarCwvp-45">
          <mxGeometry width="50" height="50" relative="1" as="geometry">
            <mxPoint x="210.25" y="240" as="sourcePoint" />
            <mxPoint x="238.75" y="260" as="targetPoint" />
          </mxGeometry>
        </mxCell>
        <mxCell id="ljBDnQ2L84ngYzarCwvp-85" value="" style="endArrow=classic;html=1;rounded=0;entryX=0.5;entryY=0;entryDx=0;entryDy=0;" parent="1" edge="1" target="8nCyzPxQiK7-BgJWahqF-6">
          <mxGeometry width="50" height="50" relative="1" as="geometry">
            <mxPoint x="565" y="240" as="sourcePoint" />
            <mxPoint x="611" y="267.5" as="targetPoint" />
          </mxGeometry>
        </mxCell>
        <mxCell id="ljBDnQ2L84ngYzarCwvp-86" value="" style="endArrow=classic;html=1;rounded=0;entryX=0.5;entryY=0;entryDx=0;entryDy=0;exitX=0.485;exitY=1.021;exitDx=0;exitDy=0;exitPerimeter=0;" parent="1" edge="1" target="8nCyzPxQiK7-BgJWahqF-7" source="ljBDnQ2L84ngYzarCwvp-8">
          <mxGeometry width="50" height="50" relative="1" as="geometry">
            <mxPoint x="565" y="249" as="sourcePoint" />
            <mxPoint x="495" y="269" as="targetPoint" />
          </mxGeometry>
        </mxCell>
        <mxCell id="ljBDnQ2L84ngYzarCwvp-87" value="" style="endArrow=classic;html=1;rounded=0;entryX=0.5;entryY=0;entryDx=0;entryDy=0;exitX=0.5;exitY=1;exitDx=0;exitDy=0;" parent="1" edge="1" target="8nCyzPxQiK7-BgJWahqF-8" source="ljBDnQ2L84ngYzarCwvp-8">
          <mxGeometry width="50" height="50" relative="1" as="geometry">
            <mxPoint x="570" y="240" as="sourcePoint" />
            <mxPoint x="635" y="269" as="targetPoint" />
          </mxGeometry>
        </mxCell>
        <mxCell id="ljBDnQ2L84ngYzarCwvp-90" value="" style="endArrow=classic;html=1;rounded=0;entryX=0.5;entryY=0;entryDx=0;entryDy=0;" parent="1" edge="1" target="ljBDnQ2L84ngYzarCwvp-30">
          <mxGeometry width="50" height="50" relative="1" as="geometry">
            <mxPoint x="390" y="130" as="sourcePoint" />
            <mxPoint x="140" y="160" as="targetPoint" />
          </mxGeometry>
        </mxCell>
        <mxCell id="ljBDnQ2L84ngYzarCwvp-91" value="" style="endArrow=classic;html=1;rounded=0;entryX=0.5;entryY=0;entryDx=0;entryDy=0;" parent="1" edge="1" target="ljBDnQ2L84ngYzarCwvp-20">
          <mxGeometry width="50" height="50" relative="1" as="geometry">
            <mxPoint x="390" y="130" as="sourcePoint" />
            <mxPoint x="640" y="160" as="targetPoint" />
          </mxGeometry>
        </mxCell>
        <mxCell id="8nCyzPxQiK7-BgJWahqF-3" value="" style="endArrow=classic;html=1;rounded=0;entryX=0.5;entryY=0;entryDx=0;entryDy=0;" edge="1" parent="1" target="ljBDnQ2L84ngYzarCwvp-51">
          <mxGeometry width="50" height="50" relative="1" as="geometry">
            <mxPoint x="210.25" y="240" as="sourcePoint" />
            <mxPoint x="175.25" y="290" as="targetPoint" />
          </mxGeometry>
        </mxCell>
        <mxCell id="8nCyzPxQiK7-BgJWahqF-4" value="" style="endArrow=classic;html=1;rounded=0;entryX=0.5;entryY=0;entryDx=0;entryDy=0;" edge="1" parent="1" target="ljBDnQ2L84ngYzarCwvp-52">
          <mxGeometry width="50" height="50" relative="1" as="geometry">
            <mxPoint x="210.25" y="240" as="sourcePoint" />
            <mxPoint x="46.5" y="260" as="targetPoint" />
          </mxGeometry>
        </mxCell>
        <mxCell id="8nCyzPxQiK7-BgJWahqF-6" value="cn" style="whiteSpace=wrap;html=1;aspect=fixed;perimeterSpacing=0;rounded=1;fillColor=#ffe6cc;strokeColor=#d79b00;" vertex="1" parent="1">
          <mxGeometry x="551" y="279" width="30" height="30" as="geometry" />
        </mxCell>
        <mxCell id="8nCyzPxQiK7-BgJWahqF-7" value="cn" style="whiteSpace=wrap;html=1;aspect=fixed;perimeterSpacing=0;rounded=1;fillColor=#ffe6cc;strokeColor=#d79b00;" vertex="1" parent="1">
          <mxGeometry x="475" y="279" width="30" height="30" as="geometry" />
        </mxCell>
        <mxCell id="8nCyzPxQiK7-BgJWahqF-8" value="cn" style="whiteSpace=wrap;html=1;aspect=fixed;perimeterSpacing=0;rounded=1;fillColor=#ffe6cc;strokeColor=#d79b00;" vertex="1" parent="1">
          <mxGeometry x="625" y="279" width="30" height="30" as="geometry" />
        </mxCell>
      </root>
    </mxGraphModel>
  </diagram>
</mxfile>
